<svg width="60" height="60" viewBox="0 0 60 60" fill="none" xmlns="http://www.w3.org/2000/svg">
<rect width="60" height="60" rx="5" fill="#E9E7FF"/>
<path d="M30.9387 40.0567L38.8137 45.0567C39.8294 45.6973 41.0793 44.7442 40.7825 43.5723L38.5012 34.6036C38.4395 34.355 38.4494 34.094 38.5295 33.8507C38.6097 33.6075 38.757 33.3917 38.9543 33.2286L46.0168 27.338C46.9387 26.5723 46.47 25.0255 45.2669 24.9473L36.0481 24.3536C35.7966 24.339 35.5547 24.2513 35.3522 24.1015C35.1496 23.9516 34.9951 23.7461 34.9075 23.5098L31.47 14.8535C31.379 14.6034 31.2132 14.3873 30.9952 14.2346C30.7771 14.0819 30.5174 14 30.2512 14C29.985 14 29.7254 14.0819 29.5072 14.2346C29.2892 14.3873 29.1235 14.6034 29.0325 14.8535L25.595 23.5098C25.5074 23.7461 25.3529 23.9516 25.1502 24.1015C24.9477 24.2513 24.7059 24.339 24.4544 24.3536L15.2356 24.9473C14.0325 25.0255 13.5637 26.5723 14.4856 27.338L21.5481 33.2286C21.7455 33.3917 21.8928 33.6075 21.9729 33.8507C22.0531 34.094 22.0629 34.355 22.0012 34.6036L19.8918 42.9161C19.5325 44.3223 21.0325 45.463 22.2356 44.6973L29.5637 40.0567C29.7692 39.926 30.0077 39.8566 30.2512 39.8566C30.4947 39.8566 30.7332 39.926 30.9387 40.0567Z" stroke="black" stroke-width="2.5" stroke-linecap="round" stroke-linejoin="round"/>
</svg>
