<svg width="60" height="60" viewBox="0 0 60 60" fill="none" xmlns="http://www.w3.org/2000/svg">
<rect width="60" height="60" rx="5" fill="#E3F3E4"/>
<path d="M18.0937 29.0468C17.909 28.7267 17.6631 28.4462 17.37 28.2211C17.0769 27.9961 16.7423 27.831 16.3854 27.7352C16.0284 27.6395 15.6562 27.6148 15.2898 27.663C14.9234 27.7111 14.57 27.831 14.2499 28.0156C13.9298 28.2003 13.6492 28.4462 13.4242 28.7393C13.1991 29.0325 13.034 29.367 12.9382 29.724C12.8425 30.0808 12.8179 30.4531 12.8661 30.8196C12.9142 31.186 13.034 31.5392 13.2187 31.8593L18.9999 41.875C20.5071 44.4283 22.9613 46.2835 25.8289 47.0371C28.6965 47.7906 31.7456 47.3817 34.3134 45.8991C36.8811 44.4166 38.7598 41.9803 39.5408 39.1201C40.3219 36.2597 39.9421 33.2068 38.4842 30.625L35.828 26.0156C35.4322 25.4186 34.8235 24.9951 34.126 24.8316C33.4286 24.6681 32.6951 24.7768 32.0751 25.1357C31.4551 25.4945 30.9955 26.0763 30.7899 26.7626C30.5843 27.4487 30.6483 28.1875 30.9686 28.8281" stroke="black" stroke-width="2.5" stroke-linecap="round" stroke-linejoin="round"/>
<path d="M26.7189 32.7342L20.7814 22.453C20.5967 22.1329 20.3508 21.8523 20.0576 21.6272C19.7645 21.4022 19.43 21.2371 19.0731 21.1413C18.7161 21.0455 18.3438 21.021 17.9774 21.0691C17.611 21.1172 17.2577 21.2371 16.9376 21.4217C16.6175 21.6064 16.3369 21.8523 16.1119 22.1454C15.8868 22.4385 15.7217 22.7731 15.6259 23.1301C15.5302 23.4869 15.5056 23.8592 15.5537 24.2257C15.6019 24.5921 15.7217 24.9454 15.9064 25.2654L21.8439 35.5467" stroke="black" stroke-width="2.5" stroke-linecap="round" stroke-linejoin="round"/>
<path d="M33.4688 33.1719L26.9063 21.797C26.5333 21.1505 25.9188 20.6787 25.1979 20.4853C24.4771 20.2919 23.709 20.3928 23.0625 20.7657C22.416 21.1387 21.9442 21.7532 21.7508 22.474C21.5574 23.1948 21.6583 23.9631 22.0312 24.6094" stroke="black" stroke-width="2.5" stroke-linecap="round" stroke-linejoin="round"/>
<path d="M25.4688 20.578L23.8594 17.7811C23.4864 17.1347 22.8719 16.6628 22.1511 16.4694C21.4302 16.276 20.6621 16.3769 20.0156 16.7499C19.3691 17.1228 18.8973 17.7373 18.7039 18.4581C18.5105 19.179 18.6114 19.9471 18.9844 20.5936L19.3594 21.2342" stroke="black" stroke-width="2.5" stroke-linecap="round" stroke-linejoin="round"/>
<path d="M39.375 39.9217C41.282 38.1949 42.5406 35.8673 42.9414 33.3261C43.3422 30.7848 42.8611 28.1829 41.5781 25.9529L38.9219 21.3592C38.7372 21.0391 38.4914 20.7585 38.1982 20.5335C37.9051 20.3084 37.5705 20.1433 37.2136 20.0475C36.8567 19.9518 36.4844 19.9273 36.118 19.9754C35.7516 20.0235 35.3982 20.1433 35.0781 20.328C34.7581 20.5127 34.4775 20.7586 34.2524 21.0517C34.0274 21.3448 33.8622 21.6794 33.7665 22.0363C33.6707 22.3932 33.6462 22.7654 33.6942 23.1319C33.7424 23.4983 33.8622 23.8517 34.0469 24.1717" stroke="black" stroke-width="2.5" stroke-linecap="round" stroke-linejoin="round"/>
<path d="M34.4062 24.7967L29.9843 17.1405C29.6113 16.494 28.9968 16.0222 28.276 15.8288C27.5552 15.6354 26.787 15.7363 26.1405 16.1092C25.494 16.4822 25.0223 17.0967 24.8288 17.8175C24.6354 18.5384 24.7363 19.3065 25.1093 19.953" stroke="black" stroke-width="2.5" stroke-linecap="round" stroke-linejoin="round"/>
<path d="M37.6249 11.7659L36.9843 14.1721" stroke="black" stroke-width="2.5" stroke-linecap="round" stroke-linejoin="round"/>
<path d="M42.3595 13.9688L40.9219 16.0156" stroke="black" stroke-width="2.5" stroke-linecap="round" stroke-linejoin="round"/>
<path d="M46.0313 17.6406L43.9844 19.0781" stroke="black" stroke-width="2.5" stroke-linecap="round" stroke-linejoin="round"/>
</svg>
