<svg width="21" height="21" viewBox="0 0 21 21" fill="none" xmlns="http://www.w3.org/2000/svg">
<g clip-path="url(#clip0_27_12292)">
<path d="M17.8323 9.29446C17.8565 6.45253 15.436 3.84723 12.4367 3.48696C12.377 3.47989 12.312 3.46912 12.2432 3.45773C12.0947 3.43313 11.9412 3.40784 11.7862 3.40784C11.1715 3.40784 11.0072 3.83965 10.9639 4.09719C10.9219 4.34759 10.962 4.55787 11.083 4.72244C11.2866 4.99926 11.6448 5.0484 11.9325 5.08778C12.0168 5.09942 12.0964 5.11025 12.163 5.12521C14.8578 5.72737 15.7652 6.67407 16.2086 9.34598C16.2195 9.41127 16.2244 9.49171 16.2295 9.57704C16.2489 9.89642 16.2892 10.5609 17.0036 10.5609H17.0037C17.0631 10.5609 17.1271 10.5558 17.1936 10.5457C17.8588 10.4446 17.838 9.83714 17.828 9.5453C17.8252 9.4631 17.8225 9.38535 17.8294 9.33365C17.8313 9.32063 17.8322 9.30754 17.8323 9.29446Z" fill="#0866C6"/>
<path d="M11.6117 2.44377C11.6915 2.44953 11.7671 2.45504 11.83 2.46468C16.2552 3.14521 18.2902 5.24182 18.8542 9.70159C18.8638 9.7774 18.8653 9.86986 18.8669 9.96777C18.8725 10.3162 18.8841 11.041 19.6625 11.0561L19.6867 11.0563C19.9308 11.0563 20.125 10.9827 20.2639 10.8373C20.5062 10.5839 20.4893 10.2073 20.4757 9.90473C20.4724 9.83048 20.4692 9.76056 20.47 9.69934C20.5263 5.13815 16.5781 1.00209 12.021 0.848276C12.002 0.84765 11.984 0.848652 11.9658 0.851218C11.9568 0.852533 11.9403 0.85416 11.9118 0.85416C11.8664 0.85416 11.8105 0.850217 11.7512 0.84621C11.6795 0.841327 11.5983 0.835693 11.5159 0.835693C10.7902 0.835693 10.6522 1.35152 10.6345 1.65901C10.5939 2.36965 11.2813 2.41967 11.6117 2.44377Z" fill="#0866C6"/>
<path d="M18.6408 15.4656C18.5468 15.3937 18.4495 15.3193 18.3584 15.246C17.8752 14.8571 17.3612 14.4988 16.8641 14.1521C16.761 14.0803 16.6578 14.0083 16.555 13.9362C15.9182 13.489 15.3457 13.2716 14.8049 13.2716C14.0764 13.2716 13.4413 13.6741 12.917 14.4678C12.6848 14.8197 12.403 14.9908 12.0558 14.9908C11.8505 14.9908 11.6171 14.9322 11.3624 14.8166C9.30707 13.8845 7.83941 12.4555 7.00012 10.5691C6.59441 9.65744 6.72594 9.06148 7.43996 8.57646C7.84542 8.30126 8.60013 7.78894 8.54667 6.80787C8.48613 5.69377 6.02794 2.34159 4.99222 1.96085C4.5537 1.79959 4.09297 1.79809 3.62033 1.9571C2.42968 2.35736 1.57524 3.0603 1.14919 3.98979C0.737463 4.88792 0.756055 5.94248 1.20296 7.03949C2.4949 10.2112 4.31132 12.9765 6.60192 15.2585C8.84402 17.4923 11.5997 19.3221 14.7925 20.6969C15.0803 20.8207 15.3821 20.8883 15.6025 20.9375C15.6777 20.9544 15.7425 20.9688 15.7898 20.9818C15.8158 20.9888 15.8425 20.9927 15.8694 20.9929L15.8946 20.993C15.8946 20.993 15.8946 20.993 15.8948 20.993C17.3964 20.993 19.1995 19.6208 19.7533 18.0565C20.2384 16.6866 19.3526 16.0096 18.6408 15.4656Z" fill="#0866C6"/>
<path d="M12.276 6.06677C12.0189 6.07328 11.4839 6.08655 11.2962 6.63149C11.2083 6.88615 11.2188 7.10725 11.3275 7.28867C11.4868 7.55484 11.7922 7.63641 12.07 7.68117C13.0773 7.8428 13.5946 8.39982 13.6981 9.43398C13.7461 9.91619 14.0709 10.2529 14.4878 10.2529C14.5186 10.2529 14.5501 10.2511 14.5815 10.2473C15.0829 10.1876 15.326 9.81922 15.304 9.1524C15.312 8.45648 14.9478 7.6664 14.3284 7.03708C13.7068 6.40581 12.9576 6.05031 12.276 6.06677Z" fill="#0866C6"/>
</g>
<defs>
<clipPath id="clip0_27_12292">
<rect width="20.1573" height="20.1573" fill="white" transform="translate(0.589844 0.835693)"/>
</clipPath>
</defs>
</svg>
