<svg width="21" height="21" viewBox="0 0 21 21" fill="none" xmlns="http://www.w3.org/2000/svg">
<path d="M14.0008 9.54429C12.0992 7.64274 9.01659 7.64274 7.11504 9.54429C5.21348 11.4459 5.21348 14.5285 7.11504 16.4301C9.01659 18.3316 12.0992 18.3316 14.0008 16.4301C15.8984 14.5285 15.8984 11.4459 14.0008 9.54429ZM8.41817 18.0206C7.66228 17.6978 6.98905 17.2096 6.45363 16.5993L5.22135 18.7332L6.47331 18.5363C6.57961 18.5167 6.68984 18.5521 6.76071 18.6426L7.52448 19.5796L8.41817 18.0206ZM14.6622 16.5993C14.1228 17.2096 13.4536 17.6978 12.6937 18.0206L13.5914 19.5757L14.3551 18.6387C14.426 18.5521 14.5362 18.5127 14.6425 18.5324L15.8945 18.7293L14.6622 16.5993ZM12.4969 11.0482C11.426 9.97736 9.68982 9.97736 8.61896 11.0482C7.5481 12.1191 7.5481 13.8553 8.61896 14.9261C9.68982 15.997 11.426 15.997 12.4969 14.9261C13.5677 13.8553 13.5677 12.1191 12.4969 11.0482ZM10.556 9.64272C12.4024 9.64272 13.9024 11.1388 13.9024 12.9891C13.9024 14.8356 12.4063 16.3356 10.556 16.3356C8.70951 16.3356 7.20952 14.8395 7.20952 12.9891C7.21346 11.1388 8.70951 9.64272 10.556 9.64272ZM8.99691 13.2096C8.91423 13.0639 8.96148 12.8828 9.10714 12.8002C9.25281 12.7175 9.43391 12.7647 9.51659 12.9104L9.9969 13.7411L11.6426 12.0955C11.7607 11.9773 11.9536 11.9773 12.0677 12.0955C12.1859 12.2136 12.1859 12.4025 12.0677 12.5206L10.1465 14.4419C10.0087 14.5797 9.77249 14.5521 9.67407 14.3789L8.99691 13.2096ZM17.5047 5.26087L18.0992 6.49314L19.4535 6.67818C19.6858 6.70967 19.7685 6.99314 19.6071 7.15061L18.6189 8.09549L18.863 9.44193C18.9023 9.67028 18.6622 9.83957 18.4614 9.73327L17.2567 9.08761L16.052 9.73327C15.8551 9.83957 15.5992 9.67421 15.6543 9.42618L15.8945 8.09549L14.9063 7.15061C14.741 6.99314 14.8315 6.70967 15.0638 6.67818L16.4142 6.49314L17.0086 5.26087C17.1071 5.05221 17.4023 5.05615 17.5047 5.26087ZM4.10325 5.26087L4.69774 6.49314L6.05205 6.67818C6.2804 6.70967 6.36701 6.99314 6.2056 7.15061L5.21742 8.09549L5.46151 9.44193C5.50088 9.67028 5.26072 9.83957 5.06387 9.73327L3.85916 9.08761L2.65445 9.73327C2.4576 9.83957 2.20563 9.67421 2.25681 9.42618L2.49697 8.09549L1.50879 7.15061C1.34343 6.99314 1.43399 6.70967 1.66627 6.67818L3.01665 6.49314L3.61113 5.26087C3.70956 5.05221 4.00483 5.05615 4.10325 5.26087ZM10.804 2.40656L11.3985 3.63883L12.7528 3.82387C12.9811 3.85537 13.0677 4.13883 12.9063 4.29631L11.9181 5.24118L12.1622 6.58763C12.2016 6.81597 11.9615 6.98526 11.7607 6.87896L10.556 6.22936L9.35124 6.87503C9.15439 6.98133 8.90242 6.81597 8.9536 6.56794L9.19376 5.23725L8.20558 4.29237C8.04023 4.13489 8.13078 3.85143 8.36306 3.81994L9.71344 3.6349L10.3079 2.40263C10.4103 2.1979 10.7056 2.20184 10.804 2.40656Z" fill="#0866C6"/>
</svg>
