<svg width="22" height="22" viewBox="0 0 22 22" fill="none" xmlns="http://www.w3.org/2000/svg">
<path d="M19.25 5.49984H17.4167M19.25 10.9998H14.6667M19.25 16.4998H14.6667M6.41667 18.3332V12.4309C6.41667 12.2403 6.41667 12.1449 6.39795 12.0537C6.38135 11.9729 6.35388 11.8946 6.31631 11.821C6.27395 11.7381 6.2144 11.6637 6.09527 11.5147L3.07139 7.73491C2.95227 7.58601 2.89272 7.51156 2.85036 7.42866C2.81278 7.35511 2.78532 7.27681 2.76872 7.19591C2.75 7.10472 2.75 7.00938 2.75 6.81869V5.13317C2.75 4.61979 2.75 4.3631 2.84991 4.16701C2.9378 3.99453 3.07803 3.8543 3.25051 3.76641C3.44659 3.6665 3.70329 3.6665 4.21667 3.6665H12.2833C12.7968 3.6665 13.0534 3.6665 13.2495 3.76641C13.422 3.8543 13.5622 3.99453 13.6501 4.16701C13.75 4.3631 13.75 4.61979 13.75 5.13317V6.81869C13.75 7.00938 13.75 7.10472 13.7313 7.19591C13.7147 7.27681 13.6872 7.35511 13.6496 7.42866C13.6073 7.51156 13.5477 7.58601 13.4286 7.73491L10.4047 11.5147C10.2856 11.6637 10.2261 11.7381 10.1837 11.821C10.1461 11.8946 10.1186 11.9729 10.102 12.0537C10.0833 12.1449 10.0833 12.2403 10.0833 12.4309V15.5832L6.41667 18.3332Z" stroke="#0866C6" stroke-width="2" stroke-linecap="round" stroke-linejoin="round"/>
</svg>
