<svg width="22" height="22" viewBox="0 0 22 22" fill="none" xmlns="http://www.w3.org/2000/svg">
<path d="M9.62843 0L8.25686 3.26434C7.98254 3.34663 7.73566 3.48379 7.48878 3.62095L4.22444 2.24938L2.24938 4.22444L3.62095 7.48878C3.48379 7.76309 3.37406 7.98254 3.26434 8.25686L0 9.62843V12.3716L3.26434 13.7431C3.37406 14.0175 3.48379 14.2369 3.62095 14.5112L2.24938 17.7756L4.22444 19.7506L7.48878 18.379C7.73566 18.4888 7.98254 18.6259 8.25686 18.7357L9.62843 22H12.3716L13.7431 18.7357C13.99 18.6259 14.2643 18.5162 14.5112 18.379L17.7756 19.7506L19.7506 17.7756L18.3791 14.5112C18.4888 14.2643 18.6259 13.99 18.7357 13.7431L22 12.3716V9.62843L18.7357 8.25686C18.6534 8.00997 18.5162 7.73566 18.3791 7.48878L19.7506 4.22444L17.7756 2.24938L14.5112 3.62095C14.2643 3.51122 13.99 3.37406 13.7431 3.26434L12.3716 0L9.62843 0ZM11 6.85785C13.2768 6.85785 15.1147 8.69576 15.1147 10.9726C15.1147 13.2494 13.2768 15.0873 11 15.0873C8.72319 15.0873 6.88529 13.2494 6.88529 10.9726C6.88529 8.69576 8.72319 6.85785 11 6.85785Z" fill="#2A7FBA"/>
</svg>
