
<svg width="10" height="10" viewBox="0 0 10 10" fill="none" xmlns="http://www.w3.org/2000/svg">
<g clip-path="url(#clip0_805_6678)">
<path d="M10 3.02246C10 2.53783 9.60572 2.14355 9.12109 2.14355H7.55859V1.51314C7.55859 1.00457 7.14484 0.59082 6.63629 0.59082H3.36373C2.85516 0.59082 2.44141 1.00457 2.44141 1.51314V2.14355H0.878906C0.394277 2.14355 0 2.53783 0 3.02246V4.40912C0 4.66752 0.0841406 4.98977 0.390625 5.30586V8.53027C0.390625 9.0149 0.784902 9.40918 1.26953 9.40918H8.73047C9.2151 9.40918 9.60938 9.0149 9.60938 8.53027V5.30586C9.91572 4.98994 10 4.66779 10 4.40912V3.02246ZM3.02734 1.51314C3.02734 1.32766 3.17824 1.17676 3.36373 1.17676H6.63631C6.82178 1.17676 6.97268 1.32766 6.97268 1.51314V2.14355H3.02734V1.51314ZM0.585938 3.02246C0.585938 2.86092 0.717363 2.72949 0.878906 2.72949H9.12109C9.28264 2.72949 9.41406 2.86092 9.41406 3.02246V4.40912C9.41406 5.12998 8.03109 5.71824 6.01562 5.87236V5.60059C6.01562 5.43879 5.88445 5.30762 5.72266 5.30762H4.27734C4.11555 5.30762 3.98438 5.43879 3.98438 5.60059V5.87227C1.97072 5.71795 0.585938 5.12814 0.585938 4.40912V3.02246ZM5.42969 5.89355V6.27441C5.42969 6.48441 5.25883 6.65527 5.04883 6.65527H4.95117C4.74117 6.65527 4.57031 6.48441 4.57031 6.27441V5.89355H5.42969ZM8.73047 8.82324H1.26953C1.10799 8.82324 0.976562 8.69182 0.976562 8.53027V5.73584C1.84891 6.18285 2.76566 6.35521 4.00266 6.46119C4.08994 6.90518 4.48199 7.24121 4.95117 7.24121H5.04883C5.51805 7.24121 5.91012 6.90514 5.99736 6.46111C7.01918 6.38711 7.94162 6.19955 8.61516 5.92701C8.76662 5.86572 8.90211 5.8017 9.02344 5.73578V8.53027C9.02344 8.69182 8.89201 8.82324 8.73047 8.82324Z" fill="#4D4D4D"/>
</g>
<defs>
<clipPath id="clip0_805_6678">
<rect width="10" height="10" fill="white"/>
</clipPath>
</defs>
</svg>
