<svg width="21" height="21" viewBox="0 0 21 21" fill="none" xmlns="http://www.w3.org/2000/svg">
<g clip-path="url(#clip0_27_12268)">
<path d="M20.8063 8.56718C20.6735 8.15902 20.3115 7.87005 19.8849 7.83145L14.0661 7.30317L11.7664 1.91927C11.5967 1.52372 11.2103 1.26843 10.7803 1.26843C10.3503 1.26843 9.96386 1.52372 9.79516 1.91927L7.49553 7.30317L1.67578 7.83145C1.24917 7.87082 0.887913 8.15979 0.754423 8.56718C0.621701 8.97534 0.744272 9.42302 1.06693 9.706L5.46549 13.5629L4.16857 19.275C4.07368 19.695 4.2367 20.1293 4.58519 20.3812C4.77251 20.5173 4.99258 20.5853 5.21343 20.5853C5.4032 20.5853 5.59314 20.5349 5.76277 20.4334L10.7803 17.4332L15.797 20.4334C16.165 20.6533 16.6278 20.6331 16.9755 20.3812C17.324 20.1293 17.487 19.695 17.3921 19.275L16.0952 13.5629L20.4938 9.706C20.8163 9.42302 20.939 8.97626 20.8063 8.56718Z" fill="#0866C6"/>
</g>
<defs>
<clipPath id="clip0_27_12268">
<rect width="20.1573" height="20.1573" fill="white" transform="translate(0.70166 0.835693)"/>
</clipPath>
</defs>
</svg>
