<svg width="50" height="43" viewBox="0 0 50 43" fill="none" xmlns="http://www.w3.org/2000/svg">
<path d="M26.1275 0.889648C28.0835 0.889648 29.6716 2.47782 29.6716 4.43375V10.0257H22.5849V4.43375C22.5849 2.47782 24.1731 0.889648 26.129 0.889648H26.1275Z" fill="#C48CAF"/>
<path d="M35.5101 10.0259H7.83205C6.07779 10.0259 4.6557 11.448 4.6557 13.2022V30.9539H45.3432V22.8855L35.5087 10.0259H35.5101Z" fill="white"/>
<path d="M26.1267 9.56592H22.5826V30.9536H26.1267V9.56592Z" fill="#C0DDF0"/>
<path d="M38.3783 13.7773H34.4368C31.9218 13.7773 29.8828 15.8163 29.8828 18.3313C29.8828 20.8463 31.9218 22.8852 34.4368 22.8852H45.3419L38.3768 13.7773H38.3783Z" fill="#4299D4"/>
<path d="M48.0401 30.9536H1.96081C1.36951 30.9536 0.890167 31.433 0.890167 32.0243V35.6559C0.890167 36.2472 1.36951 36.7265 1.96081 36.7265H48.0401C48.6314 36.7265 49.1107 36.2472 49.1107 35.6559V32.0243C49.1107 31.433 48.6314 30.9536 48.0401 30.9536Z" fill="#80BAE2"/>
<path d="M26.1272 0.889667C25.7194 0.889667 25.3294 0.959362 24.9646 1.08541C26.3496 1.56735 27.3446 2.88267 27.3446 4.43229V10.0243H29.6698V4.43229C29.6698 2.47487 28.0831 0.888184 26.1257 0.888184L26.1272 0.889667Z" fill="#A85488"/>
<path d="M20.8831 18.1788H17.3064V14.6021H13.571V18.1788H9.99429V21.9142H13.571V25.4909H17.3064V21.9142H20.8831V18.1788Z" fill="#A85488"/>
<path d="M17.3072 26.3807H13.5718C13.0809 26.3807 12.682 25.9818 12.682 25.491V22.804H9.99505C9.50421 22.804 9.10532 22.4051 9.10532 21.9143V18.1789C9.10532 17.688 9.50421 17.2891 9.99505 17.2891H12.682V14.6021C12.682 14.1113 13.0809 13.7124 13.5718 13.7124H17.3072C17.798 13.7124 18.1969 14.1113 18.1969 14.6021V17.2891H20.8839C21.3747 17.2891 21.7736 17.688 21.7736 18.1789V21.9143C21.7736 22.4051 21.3747 22.804 20.8839 22.804H18.1969V25.491C18.1969 25.9818 17.798 26.3807 17.3072 26.3807ZM14.4615 24.6012H16.4174V21.9143C16.4174 21.4234 16.8163 21.0245 17.3072 21.0245H19.9942V19.0686H17.3072C16.8163 19.0686 16.4174 18.6697 16.4174 18.1789V15.4919H14.4615V18.1789C14.4615 18.6697 14.0626 19.0686 13.5718 19.0686H10.8848V21.0245H13.5718C14.0626 21.0245 14.4615 21.4234 14.4615 21.9143V24.6012Z" fill="#2A3953"/>
<path d="M45.3439 31.8437H4.65643C4.16559 31.8437 3.76669 31.4448 3.76669 30.954V13.2023C3.76669 10.9602 5.59064 9.13623 7.83277 9.13623H35.5109C35.7882 9.13623 36.0492 9.26524 36.2182 9.48619L46.0512 22.3458C46.1699 22.5015 46.2336 22.6913 46.2336 22.8856V30.954C46.2336 31.4448 45.8347 31.8437 45.3439 31.8437ZM5.54616 30.0642H44.4542V23.1866L35.0704 10.9157H7.83277C6.57232 10.9157 5.54616 11.9419 5.54616 13.2023V30.0642Z" fill="#2A3953"/>
<path d="M48.0396 37.6163H1.96038C0.879353 37.6163 0 36.737 0 35.6559V32.0243C0 30.9433 0.879353 30.064 1.96038 30.064H48.0396C49.1207 30.064 50 30.9433 50 32.0243V35.6559C50 36.737 49.1207 37.6163 48.0396 37.6163ZM1.96038 31.8434C1.86102 31.8434 1.77947 31.925 1.77947 32.0243V35.6559C1.77947 35.7553 1.86102 35.8368 1.96038 35.8368H48.0396C48.139 35.8368 48.2205 35.7553 48.2205 35.6559V32.0243C48.2205 31.925 48.139 31.8434 48.0396 31.8434H1.96038Z" fill="#2A3953"/>
<path d="M29.67 10.9155H22.5833C22.0925 10.9155 21.6936 10.5166 21.6936 10.0258V4.43383C21.6936 1.99003 23.6821 0 26.1274 0C28.5727 0 30.5612 1.98855 30.5612 4.43383V10.0258C30.5612 10.5166 30.1623 10.9155 29.6715 10.9155H29.67ZM23.473 9.13607H28.7803V4.43383C28.7803 2.97022 27.5895 1.77947 26.1259 1.77947C24.6623 1.77947 23.4716 2.97022 23.4716 4.43383V9.13607H23.473Z" fill="#2A3953"/>
<path d="M45.3439 23.7751H34.4387C31.4373 23.7751 28.995 21.3327 28.995 18.3314C28.995 15.33 31.4373 12.8877 34.4387 12.8877H38.3802C38.6575 12.8877 38.9185 13.0167 39.0876 13.2377L46.0527 22.3456C46.2588 22.614 46.2929 22.9773 46.1431 23.2798C45.9934 23.5838 45.6834 23.7751 45.3453 23.7751H45.3439ZM34.4387 14.6672C32.419 14.6672 30.7745 16.3102 30.7745 18.3314C30.7745 20.3526 32.4175 21.9956 34.4387 21.9956H43.5436L37.9398 14.6672H34.4387Z" fill="#2A3953"/>
<path d="M13.1502 41.3029C16.4564 41.3029 19.1366 38.6227 19.1366 35.3165C19.1366 32.0103 16.4564 29.3301 13.1502 29.3301C9.844 29.3301 7.16379 32.0103 7.16379 35.3165C7.16379 38.6227 9.844 41.3029 13.1502 41.3029Z" fill="#4299D4"/>
<path d="M13.1497 42.1927C9.35793 42.1927 6.27353 39.1083 6.27353 35.3166C6.27353 31.5248 9.35793 28.4404 13.1497 28.4404C16.9414 28.4404 20.0258 31.5248 20.0258 35.3166C20.0258 39.1083 16.9414 42.1927 13.1497 42.1927ZM13.1497 30.2184C10.3396 30.2184 8.05299 32.505 8.05299 35.3151C8.05299 38.1252 10.3396 40.4118 13.1497 40.4118C15.9597 40.4118 18.2464 38.1252 18.2464 35.3151C18.2464 32.505 15.9597 30.2184 13.1497 30.2184Z" fill="#2A3953"/>
<path d="M13.1496 37.8702C14.5599 37.8702 15.7031 36.727 15.7031 35.3167C15.7031 33.9064 14.5599 32.7632 13.1496 32.7632C11.7393 32.7632 10.5961 33.9064 10.5961 35.3167C10.5961 36.727 11.7393 37.8702 13.1496 37.8702Z" fill="white"/>
<path d="M13.1492 38.7586C11.2511 38.7586 9.70593 37.2134 9.70593 35.3153C9.70593 33.4172 11.2511 31.8721 13.1492 31.8721C15.0473 31.8721 16.5925 33.4172 16.5925 35.3153C16.5925 37.2134 15.0473 38.7586 13.1492 38.7586ZM13.1492 33.6515C12.2313 33.6515 11.4854 34.3974 11.4854 35.3153C11.4854 36.2332 12.2313 36.9791 13.1492 36.9791C14.0671 36.9791 14.813 36.2332 14.813 35.3153C14.813 34.3974 14.0671 33.6515 13.1492 33.6515Z" fill="#2A3953"/>
<path d="M36.7949 41.3029C40.1011 41.3029 42.7813 38.6227 42.7813 35.3165C42.7813 32.0103 40.1011 29.3301 36.7949 29.3301C33.4887 29.3301 30.8085 32.0103 30.8085 35.3165C30.8085 38.6227 33.4887 41.3029 36.7949 41.3029Z" fill="#4299D4"/>
<path d="M36.7943 42.1927C33.0026 42.1927 29.9182 39.1083 29.9182 35.3166C29.9182 31.5248 33.0026 28.4404 36.7943 28.4404C40.586 28.4404 43.6705 31.5248 43.6705 35.3166C43.6705 39.1083 40.586 42.1927 36.7943 42.1927ZM36.7943 30.2184C33.9842 30.2184 31.6976 32.505 31.6976 35.3151C31.6976 38.1252 33.9842 40.4118 36.7943 40.4118C39.6044 40.4118 41.891 38.1252 41.891 35.3151C41.891 32.505 39.6044 30.2184 36.7943 30.2184Z" fill="#2A3953"/>
<path d="M36.7943 37.8702C38.2046 37.8702 39.3479 36.727 39.3479 35.3167C39.3479 33.9064 38.2046 32.7632 36.7943 32.7632C35.3841 32.7632 34.2408 33.9064 34.2408 35.3167C34.2408 36.727 35.3841 37.8702 36.7943 37.8702Z" fill="white"/>
<path d="M36.7939 38.7586C34.8958 38.7586 33.3506 37.2134 33.3506 35.3153C33.3506 33.4172 34.8958 31.8721 36.7939 31.8721C38.692 31.8721 40.2372 33.4172 40.2372 35.3153C40.2372 37.2134 38.692 38.7586 36.7939 38.7586ZM36.7939 33.6515C35.876 33.6515 35.1301 34.3974 35.1301 35.3153C35.1301 36.2332 35.876 36.9791 36.7939 36.9791C37.7118 36.9791 38.4577 36.2332 38.4577 35.3153C38.4577 34.3974 37.7118 33.6515 36.7939 33.6515Z" fill="#2A3953"/>
<path d="M26.1275 31.8437C25.6366 31.8437 25.2377 31.4448 25.2377 30.954V10.026C25.2377 9.53513 25.6366 9.13623 26.1275 9.13623C26.6183 9.13623 27.0172 9.53513 27.0172 10.026V30.954C27.0172 31.4448 26.6183 31.8437 26.1275 31.8437Z" fill="#2A3953"/>
</svg>
