<svg width="27" height="40" viewBox="0 0 27 40" fill="none" xmlns="http://www.w3.org/2000/svg">
<path d="M21.7706 24.1721H5.23032C4.40575 24.1721 3.73544 23.5018 3.73544 22.6772C3.73544 21.8526 4.40575 21.1823 5.23032 21.1823H21.7695C24.2865 21.1823 26.334 19.1348 26.334 16.6178C26.334 14.1008 24.2865 12.0532 21.7695 12.0532H5.23032C4.40575 12.0532 3.73544 11.3829 3.73544 10.5583C3.73544 9.73376 4.40575 9.06345 5.23032 9.06345H11.2365C13.3307 9.06345 15.0353 7.35882 15.0353 5.26465V2.40251C15.0353 1.55463 14.3483 0.867676 13.5005 0.867676C12.6526 0.867676 11.9656 1.55463 11.9656 2.40251V5.26465C11.9656 5.66639 11.6382 5.99378 11.2365 5.99378H5.23032C2.71333 5.99378 0.665771 8.04134 0.665771 10.5583C0.665771 13.0753 2.71333 15.1229 5.23032 15.1229H21.7695C22.594 15.1229 23.2644 15.7932 23.2644 16.6178C23.2644 17.4423 22.594 18.1126 21.7695 18.1126H5.23032C2.71333 18.1126 0.665771 20.1602 0.665771 22.6772C0.665771 25.1942 2.71333 27.2418 5.23032 27.2418H21.7695C22.594 27.2418 23.2644 27.9121 23.2644 28.7366C23.2644 29.5612 22.594 30.2315 21.7695 30.2315H15.7633C13.6691 30.2315 11.9645 31.9362 11.9645 34.0303V36.8936C11.9645 37.7414 12.6515 38.4284 13.4993 38.4284C14.3472 38.4284 15.0342 37.7414 15.0342 36.8936V34.0303C15.0342 33.6286 15.3616 33.3012 15.7633 33.3012H21.7695C24.2865 33.3012 26.334 31.2536 26.334 28.7366C26.334 26.2196 24.2865 24.1721 21.7695 24.1721H21.7706Z" fill="#C48CAF"/>
<path d="M26.3334 28.7374C26.3334 26.2204 24.2858 24.1729 21.7688 24.1729H19.1653V27.2425H21.7688C22.5934 27.2425 23.2637 27.9128 23.2637 28.7374C23.2637 29.562 22.5934 30.2323 21.7688 30.2323H19.1653V33.302H21.7688C24.2858 33.302 26.3334 31.2544 26.3334 28.7374Z" fill="#A85488"/>
<path d="M21.7705 12.0547H19.1669V15.1244H21.7705C22.5951 15.1244 23.2654 15.7947 23.2654 16.6192C23.2654 17.4438 22.5951 18.1141 21.7705 18.1141H19.1669V21.1838H21.7705C24.2875 21.1838 26.335 19.1362 26.335 16.6192C26.335 14.1022 24.2875 12.0547 21.7705 12.0547Z" fill="#A85488"/>
<path d="M13.5006 39.0935C12.2876 39.0935 11.2998 38.1058 11.2998 36.8928V34.0307C11.2998 31.5692 13.303 29.566 15.7645 29.566H21.7707C22.2279 29.566 22.5997 29.1942 22.5997 28.737C22.5997 28.2797 22.2279 27.908 21.7707 27.908H5.23042C2.34609 27.908 0 25.5619 0 22.6775C0 19.7932 2.34609 17.4471 5.23042 17.4471H21.7696C22.2268 17.4471 22.5986 17.0753 22.5986 16.6181C22.5986 16.1609 22.2268 15.7891 21.7696 15.7891H5.23042C2.34609 15.7891 0 13.443 0 10.5587C0 7.67434 2.34609 5.32825 5.23042 5.32825H11.2366C11.271 5.32825 11.2998 5.2994 11.2998 5.26499V2.40285C11.2998 1.18986 12.2876 0.202148 13.5006 0.202148C14.7136 0.202148 15.7013 1.18986 15.7013 2.40285V5.26499C15.7013 7.7265 13.6981 9.72967 11.2366 9.72967H5.23042C4.77319 9.72967 4.40141 10.1014 4.40141 10.5587C4.40141 11.0159 4.77319 11.3877 5.23042 11.3877H21.7696C24.6539 11.3877 27 13.7338 27 16.6181C27 19.5024 24.6539 21.8485 21.7696 21.8485H5.23042C4.77319 21.8485 4.40141 22.2203 4.40141 22.6775C4.40141 23.1348 4.77319 23.5066 5.23042 23.5066H21.7696C24.6539 23.5066 27 25.8526 27 28.737C27 31.6213 24.6539 33.9674 21.7696 33.9674H15.7634C15.729 33.9674 15.7002 33.9963 15.7002 34.0307V36.8928C15.7002 38.1058 14.7124 39.0935 13.4994 39.0935H13.5006ZM15.7645 30.8977C14.0366 30.8977 12.6316 32.3027 12.6316 34.0307V36.8928C12.6316 37.3722 13.0211 37.7618 13.5006 37.7618C13.98 37.7618 14.3695 37.3722 14.3695 36.8928V34.0307C14.3695 33.2616 14.9954 32.6357 15.7645 32.6357H21.7707C23.9203 32.6357 25.6694 30.8866 25.6694 28.737C25.6694 26.5873 23.9203 24.8383 21.7707 24.8383H5.23042C4.03851 24.8383 3.06967 23.8695 3.06967 22.6775C3.06967 21.4856 4.03851 20.5168 5.23042 20.5168H21.7696C23.9192 20.5168 25.6683 18.7678 25.6683 16.6181C25.6683 14.4685 23.9192 12.7194 21.7696 12.7194H5.23042C4.03851 12.7194 3.06967 11.7506 3.06967 10.5587C3.06967 9.36677 4.03851 8.39792 5.23042 8.39792H11.2366C12.9645 8.39792 14.3695 6.99293 14.3695 5.26499V2.40285C14.3695 1.92343 13.98 1.53389 13.5006 1.53389C13.0211 1.53389 12.6316 1.92343 12.6316 2.40285V5.26499C12.6316 6.03408 12.0057 6.66 11.2366 6.66H5.23042C3.08077 6.66 1.33174 8.40902 1.33174 10.5587C1.33174 12.7083 3.08077 14.4574 5.23042 14.4574H21.7696C22.9615 14.4574 23.9303 15.4262 23.9303 16.6181C23.9303 17.81 22.9615 18.7789 21.7696 18.7789H5.23042C3.08077 18.7789 1.33174 20.5279 1.33174 22.6775C1.33174 24.8272 3.08077 26.5762 5.23042 26.5762H21.7696C22.9615 26.5762 23.9303 27.5451 23.9303 28.737C23.9303 29.9289 22.9615 30.8977 21.7696 30.8977H15.7634H15.7645Z" fill="#2A3953"/>
</svg>
