<svg width="41" height="38" viewBox="0 0 41 38" fill="none" xmlns="http://www.w3.org/2000/svg">
<path d="M3.64076 13.8945H37.3585C38.9081 13.8945 40.1658 15.1522 40.1658 16.7017V36.7153H0.833496V16.7003C0.833496 15.1508 2.09121 13.8931 3.64076 13.8931V13.8945Z" fill="#C0DDF0"/>
<path d="M12.5828 13.8945H7.91193V36.4444H12.5828V13.8945Z" fill="#80BAE2"/>
<path d="M37.3585 13.8945H36.5066V36.7139H40.1658V16.7003C40.1658 15.1508 38.9094 13.8931 37.3585 13.8931V13.8945Z" fill="#80BAE2"/>
<path d="M37.3754 18.0498H30.4725V23.1335H37.3754V18.0498Z" fill="#E6F1FB"/>
<path d="M37.3754 26.6035H30.4725V31.6872H37.3754V26.6035Z" fill="#E6F1FB"/>
<path d="M10.5278 18.0498H3.62494V23.1335H10.5278V18.0498Z" fill="#E6F1FB"/>
<path d="M10.5278 26.6035H3.62494V31.6872H10.5278V26.6035Z" fill="#E6F1FB"/>
<path d="M40.1662 37.5476H0.833842C0.373839 37.5476 0 37.1738 0 36.7138V16.7002C0 14.6934 1.63294 13.0591 3.64111 13.0591H37.3589C39.3657 13.0591 41 14.692 41 16.7002V36.7138C41 37.1738 40.6262 37.5476 40.1662 37.5476ZM1.66768 35.8799H39.3323V16.7002C39.3323 15.612 38.4471 14.7268 37.3589 14.7268H3.64111C2.55295 14.7268 1.66768 15.612 1.66768 16.7002V35.8799Z" fill="#2A3953"/>
<path d="M37.3757 23.9676H30.4729C30.0129 23.9676 29.639 23.5938 29.639 23.1338V18.0502C29.639 17.5901 30.0129 17.2163 30.4729 17.2163H37.3757C37.8357 17.2163 38.2095 17.5901 38.2095 18.0502V23.1338C38.2095 23.5938 37.8357 23.9676 37.3757 23.9676ZM31.3067 22.3H36.5419V18.884H31.3067V22.3Z" fill="#2A3953"/>
<path d="M37.3757 32.5214H30.4729C30.0129 32.5214 29.639 32.1475 29.639 31.6875V26.6039C29.639 26.1439 30.0129 25.77 30.4729 25.77H37.3757C37.8357 25.77 38.2095 26.1439 38.2095 26.6039V31.6875C38.2095 32.1475 37.8357 32.5214 37.3757 32.5214ZM31.3067 30.8537H36.5419V27.4377H31.3067V30.8537Z" fill="#2A3953"/>
<path d="M30.473 5.07959H10.5275V36.7142H30.473V5.07959Z" fill="white"/>
<path d="M30.4728 5.07959H26.8262V36.7142H30.4728V5.07959Z" fill="#C0DDF0"/>
<path d="M26.826 24.0615H14.1738V36.7137H26.826V24.0615Z" fill="#E6F1FB"/>
<path d="M32.6108 0.833496H8.38904V5.07914H32.6108V0.833496Z" fill="#80BAE2"/>
<path d="M30.4721 37.5479H10.5267C10.0667 37.5479 9.69281 37.174 9.69281 36.714V5.07945C9.69281 4.61944 10.0667 4.24561 10.5267 4.24561H30.4721C30.9321 4.24561 31.306 4.61944 31.306 5.07945V36.714C31.306 37.174 30.9321 37.5479 30.4721 37.5479ZM11.3605 35.8802H29.6383V5.91329H11.3605V35.8802Z" fill="#2A3953"/>
<path d="M32.6113 5.91333H8.38822C7.92822 5.91333 7.55438 5.53949 7.55438 5.07948V0.833842C7.55438 0.373839 7.92822 0 8.38822 0H32.6099C33.0699 0 33.4438 0.373839 33.4438 0.833842V5.07948C33.4438 5.53949 33.0699 5.91333 32.6099 5.91333H32.6113ZM9.22346 4.24564H31.7775V1.66768H9.22207V4.24564H9.22346Z" fill="#2A3953"/>
<path d="M26.8263 37.5479H14.1742C13.7142 37.5479 13.3403 37.174 13.3403 36.714V24.0619C13.3403 23.6019 13.7142 23.228 14.1742 23.228H26.8263C27.2863 23.228 27.6602 23.6019 27.6602 24.0619V36.714C27.6602 37.174 27.2863 37.5479 26.8263 37.5479ZM15.008 35.8802H25.9925V24.8957H15.008V35.8802Z" fill="#2A3953"/>
<path d="M20.6492 37.5479C20.1892 37.5479 19.8154 37.174 19.8154 36.714V24.0619C19.8154 23.6019 20.1892 23.228 20.6492 23.228C21.1092 23.228 21.4831 23.6019 21.4831 24.0619V36.714C21.4831 37.174 21.1092 37.5479 20.6492 37.5479Z" fill="#2A3953"/>
<path d="M10.527 23.9676H3.62419C3.16418 23.9676 2.79034 23.5938 2.79034 23.1338V18.0502C2.79034 17.5901 3.16418 17.2163 3.62419 17.2163H10.527C10.987 17.2163 11.3608 17.5901 11.3608 18.0502V23.1338C11.3608 23.5938 10.987 23.9676 10.527 23.9676ZM4.45803 22.3H9.69316V18.884H4.45803V22.3Z" fill="#2A3953"/>
<path d="M10.527 32.5214H3.62419C3.16418 32.5214 2.79034 32.1475 2.79034 31.6875V26.6039C2.79034 26.1439 3.16418 25.77 3.62419 25.77H10.527C10.987 25.77 11.3608 26.1439 11.3608 26.6039V31.6875C11.3608 32.1475 10.987 32.5214 10.527 32.5214ZM4.45803 30.8537H9.69316V27.4377H4.45803V30.8537Z" fill="#2A3953"/>
<path d="M25.1171 11.8668H22.0847V8.83301H18.9161V11.8668H15.8837V15.034H18.9161V18.0664H22.0847V15.034H25.1171V11.8668Z" fill="#A85488"/>
<path d="M22.0848 18.9007H18.9176C18.4576 18.9007 18.0837 18.5268 18.0837 18.0668V15.8683H15.8852C15.4252 15.8683 15.0513 15.4944 15.0513 15.0344V11.8672C15.0513 11.4072 15.4252 11.0334 15.8852 11.0334H18.0837V8.83482C18.0837 8.37482 18.4576 8.00098 18.9176 8.00098H22.0848C22.5448 8.00098 22.9186 8.37482 22.9186 8.83482V11.0334H25.1172C25.5772 11.0334 25.951 11.4072 25.951 11.8672V15.0344C25.951 15.4944 25.5772 15.8683 25.1172 15.8683H22.9186V18.0668C22.9186 18.5268 22.5448 18.9007 22.0848 18.9007ZM19.7514 17.233H21.2509V15.0344C21.2509 14.5744 21.6248 14.2006 22.0848 14.2006H24.2833V12.7011H22.0848C21.6248 12.7011 21.2509 12.3272 21.2509 11.8672V9.66866H19.7514V11.8672C19.7514 12.3272 19.3776 12.7011 18.9176 12.7011H16.719V14.2006H18.9176C19.3776 14.2006 19.7514 14.5744 19.7514 15.0344V17.233Z" fill="#2A3953"/>
<path d="M28.2376 20.896H12.7629V24.0604H28.2376V20.896Z" fill="#C0DDF0"/>
<path d="M28.2372 20.896H24.1069V24.0604H28.2372V20.896Z" fill="#80BAE2"/>
<path d="M28.2365 24.8961H12.7632C12.3032 24.8961 11.9294 24.5222 11.9294 24.0622V20.8978C11.9294 20.4378 12.3032 20.064 12.7632 20.064H28.2365C28.6966 20.064 29.0704 20.4378 29.0704 20.8978V24.0622C29.0704 24.5222 28.6966 24.8961 28.2365 24.8961ZM13.5971 23.2284H27.4027V21.7316H13.5971V23.2284Z" fill="#2A3953"/>
</svg>
