<svg width="36" height="39" viewBox="0 0 36 39" fill="none" xmlns="http://www.w3.org/2000/svg">
<path d="M26.4438 10.8296H9.01512C7.34792 10.8296 5.9964 12.1811 5.9964 13.8483C5.9964 15.5155 7.34792 16.867 9.01512 16.867H26.4438C28.111 16.867 29.4625 15.5155 29.4625 13.8483C29.4625 12.1811 28.111 10.8296 26.4438 10.8296Z" fill="#C0DDF0"/>
<path d="M26.4431 17.6883H9.01572C6.89933 17.6883 5.1767 15.9657 5.1767 13.8493C5.1767 11.7329 6.89933 10.0103 9.01572 10.0103H26.4431C28.5594 10.0103 30.2821 11.7329 30.2821 13.8493C30.2821 15.9657 28.5594 17.6883 26.4431 17.6883ZM9.01572 11.6509C7.80304 11.6509 6.8173 12.6366 6.8173 13.8493C6.8173 15.062 7.80304 16.0477 9.01572 16.0477H26.4431C27.6557 16.0477 28.6415 15.062 28.6415 13.8493C28.6415 12.6366 27.6557 11.6509 26.4431 11.6509H9.01572Z" fill="#2A3953"/>
<path d="M28.9089 25.2981H21.4934V23.2938C24.2715 21.9089 26.1814 19.0419 26.1814 15.7265V9.26934C26.1814 4.60181 22.3984 0.818848 17.7309 0.818848C13.0634 0.818848 9.28041 4.60181 9.28041 9.26934V15.7265C9.28041 19.0392 11.1876 21.9048 13.9616 23.2897V25.2967H6.5529C3.3879 25.2967 0.821716 27.8629 0.821716 31.0279V38.1481H34.6401V31.0279C34.6401 27.8629 32.0739 25.2967 28.9089 25.2967V25.2981Z" fill="white"/>
<path d="M19.4921 22.5664H15.9579C14.854 22.5664 13.9591 23.4613 13.9591 24.5652C13.9591 25.6691 14.854 26.564 15.9579 26.564H19.4921C20.596 26.564 21.4909 25.6691 21.4909 24.5652C21.4909 23.4613 20.596 22.5664 19.4921 22.5664Z" fill="#C48CAF"/>
<path d="M7.69085 38.9701C7.23831 38.9701 6.87054 38.6023 6.87054 38.1497V33.7666C6.87054 33.3141 7.23831 32.9463 7.69085 32.9463C8.14338 32.9463 8.51115 33.3141 8.51115 33.7666V38.1497C8.51115 38.6023 8.14338 38.9701 7.69085 38.9701Z" fill="#2A3953"/>
<path d="M27.7746 38.9701C27.3221 38.9701 26.9543 38.6023 26.9543 38.1497V33.7666C26.9543 33.3141 27.3221 32.9463 27.7746 32.9463C28.2272 32.9463 28.595 33.3141 28.595 33.7666V38.1497C28.595 38.6023 28.2272 38.9701 27.7746 38.9701Z" fill="#2A3953"/>
<path d="M34.6387 38.9699H0.820303C0.367769 38.9699 0 38.6021 0 38.1496V31.0294C0 27.4173 2.93942 24.4779 6.55149 24.4779H13.1399V23.7833C10.2388 22.1332 8.4587 19.0926 8.4587 15.728V9.2708C8.4587 4.15894 12.6176 0 17.7295 0C22.8413 0 27.0003 4.15894 27.0003 9.2708V15.728C27.0003 19.0953 25.2175 22.1386 22.3123 23.7874V24.4792H28.9075C32.5196 24.4792 35.459 27.4186 35.459 31.0307V38.151C35.459 38.6035 35.0912 38.9713 34.6387 38.9713V38.9699ZM1.64061 37.3293H33.8184V31.0294C33.8184 28.321 31.6145 26.1185 28.9075 26.1185H21.492C21.0394 26.1185 20.6716 25.7507 20.6716 25.2982V23.2939C20.6716 22.9822 20.848 22.6978 21.1255 22.5597C23.7368 21.2582 25.3597 18.64 25.3597 15.7266V9.26943C25.3597 5.06127 21.9363 1.63924 17.7295 1.63924C13.5227 1.63924 10.0993 5.06264 10.0993 9.26943V15.7266C10.0993 18.6373 11.7194 21.2541 14.3266 22.5556C14.6041 22.6951 14.7805 22.9781 14.7805 23.2898V25.2968C14.7805 25.7493 14.4127 26.1171 13.9602 26.1171H6.55149C3.84312 26.1171 1.64061 28.3196 1.64061 31.028V37.3279V37.3293Z" fill="#2A3953"/>
<path d="M17.7289 30.458C17.2764 30.458 16.9086 30.0902 16.9086 29.6377V13.8496C16.9086 13.3971 17.2764 13.0293 17.7289 13.0293H21.4914C21.9439 13.0293 22.3117 13.3971 22.3117 13.8496C22.3117 14.3021 21.9439 14.6699 21.4914 14.6699H18.5492V29.6377C18.5492 30.0902 18.1815 30.458 17.7289 30.458Z" fill="#2A3953"/>
<path d="M22.111 33.9852C21.9305 33.9852 21.7487 33.9265 21.5969 33.8034L17.7306 30.689L13.8642 33.8034C13.5115 34.0878 12.9947 34.0317 12.7103 33.679C12.4259 33.3263 12.482 32.8095 12.8347 32.5251L17.2151 28.9964C17.5159 28.7544 17.9438 28.7544 18.2446 28.9964L22.625 32.5251C22.9778 32.8095 23.0338 33.3263 22.7494 33.679C22.5867 33.88 22.3502 33.9852 22.1096 33.9852H22.111Z" fill="#2A3953"/>
<path d="M19.4941 27.3843H15.9586C14.4041 27.3843 13.1395 26.1197 13.1395 24.5652C13.1395 23.0107 14.4041 21.7461 15.9586 21.7461H19.4941C21.0486 21.7461 22.3132 23.0107 22.3132 24.5652C22.3132 26.1197 21.0486 27.3843 19.4941 27.3843ZM15.9586 23.3867C15.3092 23.3867 14.7801 23.9158 14.7801 24.5652C14.7801 25.2146 15.3092 25.7437 15.9586 25.7437H19.4941C20.1435 25.7437 20.6726 25.2146 20.6726 24.5652C20.6726 23.9158 20.1435 23.3867 19.4941 23.3867H15.9586Z" fill="#2A3953"/>
</svg>
