<svg width="45" height="38" viewBox="0 0 45 38" fill="none" xmlns="http://www.w3.org/2000/svg">
<path d="M24.3451 5.02393H21.7194C20.757 5.02393 19.9769 5.80408 19.9769 6.76644V11.8368C19.9769 12.7992 20.757 13.5793 21.7194 13.5793H24.3451C25.3075 13.5793 26.0877 12.7992 26.0877 11.8368V6.76644C26.0877 5.80408 25.3075 5.02393 24.3451 5.02393Z" fill="#FFD392"/>
<path d="M36.4045 5.02393H33.7788C32.8164 5.02393 32.0363 5.80408 32.0363 6.76644V11.8368C32.0363 12.7992 32.8164 13.5793 33.7788 13.5793H36.4045C37.3669 13.5793 38.147 12.7992 38.147 11.8368V6.76644C38.147 5.80408 37.3669 5.02393 36.4045 5.02393Z" fill="#FFD392"/>
<path d="M24.3443 14.4773H21.7185C21.0182 14.4765 20.3467 14.1978 19.8516 13.7024C19.3565 13.2071 19.0782 12.5355 19.0778 11.8351V6.76621C19.0786 6.06609 19.3571 5.39488 19.8521 4.89982C20.3472 4.40476 21.0184 4.12628 21.7185 4.12549H24.3443C24.6915 4.1251 25.0353 4.19309 25.3562 4.32558C25.6771 4.45808 25.9688 4.65249 26.2146 4.8977C26.4603 5.14291 26.6554 5.43413 26.7886 5.75473C26.9218 6.07533 26.9906 6.41903 26.991 6.76621V11.8351C26.9902 12.5364 26.711 13.2087 26.2147 13.7041C25.7183 14.1996 25.0456 14.4777 24.3443 14.4773ZM21.7185 5.9219C21.4947 5.9223 21.2802 6.01138 21.122 6.16963C20.9637 6.32788 20.8746 6.54241 20.8742 6.76621V11.8351C20.8742 12.0591 20.9631 12.2741 21.1214 12.4326C21.2797 12.5912 21.4945 12.6805 21.7185 12.6809H24.3443C24.5684 12.6805 24.7831 12.5912 24.9414 12.4326C25.0997 12.2741 25.1886 12.0591 25.1886 11.8351V6.76621C25.1882 6.54241 25.0991 6.32788 24.9409 6.16963C24.7826 6.01138 24.5681 5.9223 24.3443 5.9219H21.7185Z" fill="#2A3953"/>
<path d="M36.4055 14.4773H33.7798C33.0794 14.4765 32.4079 14.1978 31.9128 13.7024C31.4177 13.2071 31.1394 12.5355 31.139 11.8351V6.76621C31.1398 6.06609 31.4183 5.39487 31.9134 4.89981C32.4084 4.40475 33.0796 4.12628 33.7798 4.12549H36.4055C37.1056 4.12628 37.7768 4.40475 38.2719 4.89981C38.767 5.39487 39.0454 6.06609 39.0462 6.76621V11.8351C39.0454 12.5353 38.767 13.2067 38.272 13.702C37.777 14.1973 37.1058 14.4761 36.4055 14.4773ZM33.7798 5.9219C33.556 5.92229 33.3414 6.01137 33.1832 6.16963C33.0249 6.32788 32.9358 6.54241 32.9354 6.76621V11.8351C32.9354 12.0591 33.0244 12.2741 33.1826 12.4326C33.3409 12.5912 33.5557 12.6805 33.7798 12.6809H36.4055C36.6296 12.6805 36.8443 12.5912 37.0026 12.4326C37.1609 12.2741 37.2498 12.0591 37.2498 11.8351V6.76621C37.2494 6.54241 37.1603 6.32788 37.0021 6.16963C36.8438 6.01137 36.6293 5.92229 36.4055 5.9219H33.7798Z" fill="#2A3953"/>
<path d="M35.0745 5.92216C34.8363 5.92216 34.6078 5.82753 34.4394 5.65909C34.271 5.49064 34.1763 5.26218 34.1763 5.02396V1.79641H23.9413V5.02396C23.9413 5.26218 23.8466 5.49064 23.6782 5.65909C23.5098 5.82753 23.2813 5.92216 23.0431 5.92216C22.8049 5.92216 22.5764 5.82753 22.4079 5.65909C22.2395 5.49064 22.1449 5.26218 22.1449 5.02396V0.898205C22.1449 0.659986 22.2395 0.431524 22.4079 0.263077C22.5764 0.0946314 22.8049 0 23.0431 0H35.0745C35.3127 0 35.5412 0.0946314 35.7097 0.263077C35.8781 0.431524 35.9727 0.659986 35.9727 0.898205V5.02396C35.9727 5.26218 35.8781 5.49064 35.7097 5.65909C35.5412 5.82753 35.3127 5.92216 35.0745 5.92216Z" fill="#2A3953"/>
<path d="M29.0617 38.0001C28.8235 38.0001 28.5951 37.9054 28.4266 37.737C28.2582 37.5685 28.1635 37.3401 28.1635 37.1019V0.898205C28.1635 0.659986 28.2582 0.431524 28.4266 0.263077C28.5951 0.0946314 28.8235 0 29.0617 0C29.3 0 29.5284 0.0946314 29.6969 0.263077C29.8653 0.431524 29.96 0.659986 29.96 0.898205V37.1019C29.96 37.3401 29.8653 37.5685 29.6969 37.737C29.5284 37.9054 29.3 38.0001 29.0617 38.0001Z" fill="#2A3953"/>
<path d="M32.5596 38H25.5626C25.3244 38 25.0959 37.9054 24.9275 37.7369C24.759 37.5685 24.6644 37.34 24.6644 37.1018C24.6644 36.8636 24.759 36.6351 24.9275 36.4667C25.0959 36.2982 25.3244 36.2036 25.5626 36.2036H32.5596C32.7978 36.2036 33.0263 36.2982 33.1947 36.4667C33.3632 36.6351 33.4578 36.8636 33.4578 37.1018C33.4578 37.34 33.3632 37.5685 33.1947 37.7369C33.0263 37.9054 32.7978 38 32.5596 38Z" fill="#2A3953"/>
<path d="M35.3761 17.2666H18.1021C16.7883 17.2666 15.7233 18.3316 15.7233 19.6453V19.6468C15.7233 20.9606 16.7883 22.0256 18.1021 22.0256H35.3761C36.6898 22.0256 37.7548 20.9606 37.7548 19.6468V19.6453C37.7548 18.3316 36.6898 17.2666 35.3761 17.2666Z" fill="#40B06A"/>
<path d="M24.3611 17.2666H18.1021C16.7883 17.2666 15.7233 18.3316 15.7233 19.6453V19.6468C15.7233 20.9606 16.7883 22.0256 18.1021 22.0256H24.3611C25.6748 22.0256 26.7398 20.9606 26.7398 19.6468V19.6453C26.7398 18.3316 25.6748 17.2666 24.3611 17.2666Z" fill="#C0E2CC"/>
<path d="M12.6194 15.8193H10.347C8.63308 15.8193 7.24368 17.2084 7.24368 18.9219C7.24368 20.6354 8.63308 22.0244 10.347 22.0244H12.6194C14.3333 22.0244 15.7227 20.6354 15.7227 18.9219C15.7227 17.2084 14.3333 15.8193 12.6194 15.8193Z" fill="white"/>
<path d="M12.6191 22.9222H10.3466C9.81473 22.9325 9.28612 22.8366 8.79171 22.6402C8.29731 22.4437 7.84704 22.1507 7.46724 21.7781C7.08744 21.4056 6.78574 20.9611 6.57978 20.4706C6.37381 19.9801 6.26773 19.4534 6.26773 18.9214C6.26773 18.3894 6.37381 17.8628 6.57978 17.3723C6.78574 16.8817 7.08744 16.4372 7.46724 16.0647C7.84704 15.6922 8.29731 15.3991 8.79171 15.2027C9.28612 15.0063 9.81473 14.9104 10.3466 14.9207H12.6191C13.6668 14.9409 14.6647 15.3713 15.3984 16.1194C16.1322 16.8675 16.5432 17.8736 16.5432 18.9214C16.5432 19.9693 16.1322 20.9753 15.3984 21.7234C14.6647 22.4715 13.6668 22.9019 12.6191 22.9222ZM10.3451 16.7171C10.0508 16.7094 9.75795 16.7608 9.4838 16.8681C9.20965 16.9754 8.95976 17.1366 8.74889 17.342C8.53801 17.5475 8.37042 17.7931 8.25598 18.0643C8.14154 18.3356 8.08259 18.627 8.08259 18.9214C8.08259 19.2158 8.14154 19.5073 8.25598 19.7785C8.37042 20.0498 8.53801 20.2954 8.74889 20.5008C8.95976 20.7063 9.20965 20.8674 9.4838 20.9748C9.75795 21.0821 10.0508 21.1334 10.3451 21.1258H12.6191C13.1938 21.1108 13.7399 20.872 14.1411 20.4602C14.5422 20.0485 14.7667 19.4963 14.7667 18.9214C14.7667 18.3465 14.5422 17.7944 14.1411 17.3826C13.7399 16.9709 13.1938 16.7321 12.6191 16.7171H10.3451Z" fill="#2A3953"/>
<path d="M35.3755 22.9221H18.1031C17.234 22.9221 16.4005 22.5768 15.7859 21.9623C15.1714 21.3477 14.8261 20.5142 14.8261 19.6451C14.8261 18.776 15.1714 17.9425 15.7859 17.328C16.4005 16.7134 17.234 16.3682 18.1031 16.3682H35.3755C36.2446 16.3682 37.0782 16.7134 37.6927 17.328C38.3072 17.9425 38.6525 18.776 38.6525 19.6451C38.6525 20.5142 38.3072 21.3477 37.6927 21.9623C37.0782 22.5768 36.2446 22.9221 35.3755 22.9221ZM18.1031 18.1646C17.7104 18.1646 17.3338 18.3206 17.0562 18.5982C16.7785 18.8759 16.6225 19.2525 16.6225 19.6451C16.6225 20.0378 16.7785 20.4144 17.0562 20.692C17.3338 20.9697 17.7104 21.1257 18.1031 21.1257H35.3755C35.7682 21.1257 36.1448 20.9697 36.4224 20.692C36.7001 20.4144 36.8561 20.0378 36.8561 19.6451C36.8561 19.2525 36.7001 18.8759 36.4224 18.5982C36.1448 18.3206 35.7682 18.1646 35.3755 18.1646H18.1031Z" fill="#2A3953"/>
<path d="M24.3621 22.9221H18.1031C17.234 22.9221 16.4005 22.5768 15.7859 21.9623C15.1714 21.3477 14.8261 20.5142 14.8261 19.6451C14.8261 18.776 15.1714 17.9425 15.7859 17.328C16.4005 16.7134 17.234 16.3682 18.1031 16.3682H24.3621C25.2312 16.3682 26.0647 16.7134 26.6792 17.328C27.2938 17.9425 27.639 18.776 27.639 19.6451C27.639 20.5142 27.2938 21.3477 26.6792 21.9623C26.0647 22.5768 25.2312 22.9221 24.3621 22.9221ZM18.1031 18.1646C17.7104 18.1646 17.3338 18.3206 17.0562 18.5982C16.7785 18.8759 16.6225 19.2525 16.6225 19.6451C16.6225 20.0378 16.7785 20.4144 17.0562 20.692C17.3338 20.9697 17.7104 21.1257 18.1031 21.1257H24.3621C24.7547 21.1257 25.1313 20.9697 25.409 20.692C25.6866 20.4144 25.8426 20.0378 25.8426 19.6451C25.8426 19.2525 25.6866 18.8759 25.409 18.5982C25.1313 18.3206 24.7547 18.1646 24.3621 18.1646H18.1031Z" fill="#2A3953"/>
<path d="M37.7542 22.0239H7.24368V32.2799H37.7542V22.0239Z" fill="#C0DDF0"/>
<path d="M37.7542 28.7007H7.24368V32.2815H37.7542V28.7007Z" fill="#80BAE2"/>
<path d="M7.24453 9.62598H0.897217V37.1006H7.24453V9.62598Z" fill="#80BAE2"/>
<path d="M44.1038 22.0239H37.7565V37.1003H44.1038V22.0239Z" fill="#80BAE2"/>
<path d="M7.24402 38H0.898205C0.659986 38 0.431525 37.9054 0.263079 37.737C0.0946325 37.5685 0 37.3401 0 37.1018V9.62574C0 9.38753 0.0946325 9.15906 0.263079 8.99062C0.431525 8.82217 0.659986 8.72754 0.898205 8.72754H7.24402C7.48224 8.72754 7.7107 8.82217 7.87915 8.99062C8.0476 9.15906 8.14223 9.38753 8.14223 9.62574V37.1018C8.14223 37.3401 8.0476 37.5685 7.87915 37.737C7.7107 37.9054 7.48224 38 7.24402 38ZM1.79641 36.2036H6.34582V10.5239H1.79641V36.2036Z" fill="#2A3953"/>
<path d="M44.1014 37.9998H37.7556C37.5174 37.9998 37.2889 37.9051 37.1205 37.7367C36.9521 37.5682 36.8574 37.3398 36.8574 37.1016V22.0237C36.8574 21.7855 36.9521 21.557 37.1205 21.3886C37.2889 21.2201 37.5174 21.1255 37.7556 21.1255H44.1014C44.3397 21.1255 44.5681 21.2201 44.7366 21.3886C44.905 21.557 44.9996 21.7855 44.9996 22.0237V37.1016C44.9996 37.3398 44.905 37.5682 44.7366 37.7367C44.5681 37.9051 44.3397 37.9998 44.1014 37.9998ZM38.6538 36.2034H43.2032V22.9219H38.6538V36.2034Z" fill="#2A3953"/>
<path d="M37.7567 33.1794H7.24467C7.00645 33.1794 6.77799 33.0848 6.60955 32.9163C6.4411 32.7479 6.34647 32.5194 6.34647 32.2812V22.0237C6.34647 21.7855 6.4411 21.557 6.60955 21.3886C6.77799 21.2201 7.00645 21.1255 7.24467 21.1255H37.7567C37.9949 21.1255 38.2234 21.2201 38.3918 21.3886C38.5603 21.557 38.6549 21.7855 38.6549 22.0237V32.2812C38.6549 32.5194 38.5603 32.7479 38.3918 32.9163C38.2234 33.0848 37.9949 33.1794 37.7567 33.1794ZM8.14288 31.383H36.8585V22.9219H8.14288V31.383Z" fill="#2A3953"/>
<path d="M37.7567 33.18H7.24467C7.00645 33.18 6.77799 33.0854 6.60955 32.9169C6.4411 32.7485 6.34647 32.52 6.34647 32.2818V28.7009C6.34647 28.4627 6.4411 28.2343 6.60955 28.0658C6.77799 27.8974 7.00645 27.8027 7.24467 27.8027H37.7567C37.9949 27.8027 38.2234 27.8974 38.3918 28.0658C38.5603 28.2343 38.6549 28.4627 38.6549 28.7009V32.2818C38.6549 32.52 38.5603 32.7485 38.3918 32.9169C38.2234 33.0854 37.9949 33.18 37.7567 33.18ZM8.14288 31.3836H36.8585V29.5991H8.14288V31.3836Z" fill="#2A3953"/>
</svg>
