<svg width="34" height="45" viewBox="0 0 34 45" fill="none" xmlns="http://www.w3.org/2000/svg">
<path d="M27.0805 27.4484H20.1456V22.812H13.101V27.4484H6.17149C3.21061 27.4484 0.810486 29.8485 0.810486 32.8094V43.3038H32.4388V32.8094C32.4388 29.8485 30.0386 27.4484 27.0778 27.4484H27.0805Z" fill="white"/>
<path d="M25.8356 17.0553V10.0121C25.8356 4.93145 21.7167 0.8125 16.636 0.8125C11.5554 0.8125 7.43646 4.93145 7.43646 10.0121V17.0553H25.8343H25.8356Z" fill="#FFD392"/>
<path d="M25.8347 17.8682H7.43689C6.98856 17.8682 6.62421 17.5038 6.62421 17.0555V10.0123C6.62421 4.49143 11.1156 0 16.6365 0C22.1573 0 26.6487 4.49143 26.6487 10.0123V17.0555C26.6487 17.5038 26.2844 17.8682 25.836 17.8682H25.8347ZM8.24957 16.2428H25.022V10.0123C25.022 5.38809 21.2593 1.62537 16.6351 1.62537C12.0109 1.62537 8.24822 5.38809 8.24822 10.0123V16.2428H8.24957Z" fill="#2A3953"/>
<path d="M24.7766 13.917H8.47819C6.91849 13.917 5.65411 15.1811 5.65411 16.7404C5.65411 18.2997 6.91849 19.5638 8.47819 19.5638H24.7766C26.3363 19.5638 27.6006 18.2997 27.6006 16.7404C27.6006 15.1811 26.3363 13.917 24.7766 13.917Z" fill="#C0DDF0"/>
<path d="M24.777 20.3765H8.47726C6.47264 20.3765 4.84186 18.7458 4.84186 16.7398C4.84186 14.7338 6.47264 13.103 8.47726 13.103H24.777C26.7816 13.103 28.4124 14.7338 28.4124 16.7398C28.4124 18.7458 26.7816 20.3765 24.777 20.3765ZM8.47726 14.7297C7.36795 14.7297 6.46722 15.6318 6.46722 16.7411C6.46722 17.8505 7.3693 18.7525 8.47726 18.7525H24.777C25.8863 18.7525 26.787 17.8505 26.787 16.7411C26.787 15.6318 25.8849 14.7297 24.777 14.7297H8.47726Z" fill="#2A3953"/>
<path d="M27.0803 27.4482H23.8269C26.7878 27.4482 29.1879 29.8484 29.1879 32.8092V43.3037H32.4413V32.8092C32.4413 29.8484 30.0412 27.4482 27.0803 27.4482Z" fill="#C0DDF0"/>
<path d="M7.23578 44.1164C6.78745 44.1164 6.4231 43.752 6.4231 43.3037V37.9265C6.4231 37.4781 6.78745 37.1138 7.23578 37.1138C7.68411 37.1138 8.04846 37.4781 8.04846 37.9265V43.3037C8.04846 43.752 7.68411 44.1164 7.23578 44.1164Z" fill="#2A3953"/>
<path d="M26.019 44.1164C25.5707 44.1164 25.2064 43.752 25.2064 43.3037V37.9265C25.2064 37.4781 25.5707 37.1138 26.019 37.1138C26.4674 37.1138 26.8317 37.4781 26.8317 37.9265V43.3037C26.8317 43.752 26.4674 44.1164 26.019 44.1164Z" fill="#2A3953"/>
<path d="M32.4423 44.1167H0.812683C0.364353 44.1167 0 43.7523 0 43.304V32.8096C0 29.4058 2.7699 26.6359 6.17369 26.6359H12.2905V22.8122C12.2905 22.3639 12.6548 21.9995 13.1032 21.9995H20.1478C20.5961 21.9995 20.9605 22.3639 20.9605 22.8122V26.6359H27.0827C30.4865 26.6359 33.2564 29.4058 33.2564 32.8096V43.304C33.2564 43.7523 32.892 44.1167 32.4437 44.1167H32.4423ZM1.62672 42.4913H31.6296V32.8096C31.6296 30.3024 29.5898 28.2612 27.0813 28.2612H20.1464C19.6981 28.2612 19.3337 27.8969 19.3337 27.4486V23.6249H13.9145V27.4486C13.9145 27.8969 13.5501 28.2612 13.1018 28.2612H6.17233C3.6652 28.2612 1.62401 30.3011 1.62401 32.8096V42.4913H1.62672Z" fill="#2A3953"/>
<path d="M19.8376 8.88672C16.9051 12.0887 11.2841 13.3375 8.81623 13.7452C8.75528 14.1407 8.72412 14.5457 8.72412 14.9575V18.6335C8.72412 22.999 12.2634 26.5368 16.6275 26.5368C20.9929 26.5368 24.5308 22.9976 24.5308 18.6335V14.9575C24.5308 14.5782 24.5024 14.2044 24.4509 13.8387C23.752 13.4824 20.9171 11.8801 19.8376 8.88672Z" fill="white"/>
<path d="M13.0792 17.6083C12.6308 17.6083 12.2665 17.244 12.2665 16.7957V15.2624C12.2665 14.8141 12.6308 14.4497 13.0792 14.4497C13.5275 14.4497 13.8918 14.8141 13.8918 15.2624V16.7957C13.8918 17.244 13.5275 17.6083 13.0792 17.6083Z" fill="#2A3953"/>
<path d="M20.1735 17.6083C19.7252 17.6083 19.3608 17.244 19.3608 16.7957V15.2624C19.3608 14.8141 19.7252 14.4497 20.1735 14.4497C20.6219 14.4497 20.9862 14.8141 20.9862 15.2624V16.7957C20.9862 17.244 20.6219 17.6083 20.1735 17.6083Z" fill="#2A3953"/>
<path d="M16.6279 27.3497C11.8222 27.3497 7.91187 23.4393 7.91187 18.6337V14.9576C7.91187 14.5106 7.94573 14.061 8.01345 13.6221C8.06628 13.2754 8.33717 13.0018 8.68392 12.9435C10.9296 12.5724 16.4532 11.3791 19.238 8.33832C19.4303 8.12837 19.7174 8.03491 19.9965 8.09045C20.2755 8.14598 20.5044 8.34373 20.6019 8.61192C21.5907 11.3534 24.2888 12.8446 24.8197 13.1155C25.0554 13.2361 25.218 13.4636 25.2545 13.7251C25.3128 14.1382 25.3426 14.5526 25.3426 14.9576V18.6337C25.3426 23.4393 21.4322 27.3497 16.6265 27.3497H16.6279ZM9.55619 14.4416C9.544 14.6136 9.53723 14.7856 9.53723 14.9576V18.6337C9.53723 22.544 12.7189 25.7243 16.6279 25.7243C20.5369 25.7243 23.7186 22.5427 23.7186 18.6337V14.9576C23.7186 14.7585 23.7091 14.5567 23.6915 14.3522C22.6892 13.7806 20.7441 12.4573 19.5685 10.2711C17.9593 11.6486 14.9307 13.4609 9.55484 14.4429L9.55619 14.4416Z" fill="#2A3953"/>
</svg>
