<svg width="22" height="44" viewBox="0 0 22 44" fill="none" xmlns="http://www.w3.org/2000/svg">
<path d="M21.333 43.8458H12.9996C12.1348 43.8445 11.3057 43.4657 10.6942 42.7924C10.0826 42.1191 9.73854 41.2063 9.73737 40.2542V35.3609C9.73737 35.1663 9.8076 34.9796 9.93263 34.8419C10.0577 34.7043 10.2272 34.627 10.404 34.627C10.5808 34.627 10.7504 34.7043 10.8754 34.8419C11.0005 34.9796 11.0707 35.1663 11.0707 35.3609V40.2542C11.0713 40.8172 11.2747 41.357 11.6363 41.7551C11.9979 42.1532 12.4882 42.3772 12.9996 42.3778H21.333C21.5098 42.3778 21.6793 42.4552 21.8044 42.5928C21.9294 42.7305 21.9996 42.9172 21.9996 43.1118C21.9996 43.3065 21.9294 43.4932 21.8044 43.6308C21.6793 43.7685 21.5098 43.8458 21.333 43.8458Z" fill="#2A3953"/>
<path d="M8.05945 28.2607H12.8639V35.0477C12.8639 35.45 12.7187 35.8358 12.4604 36.1203C12.202 36.4048 11.8515 36.5646 11.4861 36.5646H9.43723C9.07182 36.5646 8.72138 36.4048 8.46299 36.1203C8.20461 35.8358 8.05945 35.45 8.05945 35.0477V28.2607Z" fill="#4299D4"/>
<path d="M11.4864 37.2987H9.43636C8.89431 37.298 8.37464 37.0606 7.99136 36.6387C7.60808 36.2167 7.39249 35.6445 7.39191 35.0478V28.2608C7.39191 28.0662 7.46214 27.8795 7.58717 27.7418C7.71219 27.6042 7.88176 27.5269 8.05858 27.5269H12.863C13.0398 27.5269 13.2094 27.6042 13.3344 27.7418C13.4595 27.8795 13.5297 28.0662 13.5297 28.2608V35.0478C13.5294 35.6444 13.3141 36.2166 12.931 36.6386C12.5479 37.0606 12.0283 37.298 11.4864 37.2987ZM8.72524 28.9948V35.0478C8.72554 35.2553 8.80055 35.4543 8.93385 35.601C9.06714 35.7478 9.24785 35.8304 9.43636 35.8307H11.4864C11.6748 35.8304 11.8554 35.7477 11.9885 35.6009C12.1216 35.4541 12.1964 35.2552 12.1964 35.0478V28.9948H8.72524Z" fill="#2A3953"/>
<path d="M4.79317 0.733887H16.0099C17.1037 0.733887 18.1528 1.2123 18.9263 2.06389C19.6998 2.91548 20.1343 4.07048 20.1343 5.27481V20.8537C20.1343 23.6954 19.109 26.4208 17.2838 28.4303C15.4587 30.4397 12.9832 31.5686 10.4021 31.5686C9.12383 31.5689 7.85805 31.292 6.67702 30.7537C5.49599 30.2154 4.42286 29.4262 3.5189 28.4311C2.61494 27.4361 1.89787 26.2548 1.40864 24.9547C0.919409 23.6545 0.667603 22.261 0.667603 20.8537V5.27481C0.667603 4.67849 0.774285 4.088 0.981558 3.53707C1.18883 2.98614 1.49264 2.48556 1.87563 2.06389C2.25862 1.64223 2.7133 1.30775 3.2137 1.07954C3.7141 0.851341 4.25043 0.733887 4.79206 0.733887H4.79317Z" fill="#FFF2DB"/>
<path d="M16.0098 0.733887H12.4697C13.0114 0.733887 13.5477 0.851341 14.0481 1.07954C14.5485 1.30775 15.0032 1.64223 15.3862 2.06389C15.7692 2.48556 16.073 2.98614 16.2802 3.53707C16.4875 4.088 16.5942 4.67849 16.5942 5.27481V20.8537C16.5935 23.3571 15.7969 25.7812 14.3425 27.7056C12.8881 29.6299 10.8678 30.933 8.63196 31.3888C9.2154 31.5078 9.80748 31.568 10.4009 31.5686C12.9821 31.5686 15.4577 30.4398 17.283 28.4304C19.1083 26.4209 20.1339 23.6956 20.1342 20.8537V5.27481C20.1342 4.67849 20.0275 4.088 19.8203 3.53707C19.613 2.98614 19.3092 2.48556 18.9262 2.06389C18.5432 1.64223 18.0885 1.30775 17.5881 1.07954C17.0877 0.851341 16.5514 0.733887 16.0098 0.733887Z" fill="#FFD392"/>
<path d="M10.401 31.5686C12.9822 31.5686 15.4578 30.4397 17.2831 28.4303C19.1084 26.4209 20.134 23.6955 20.1343 20.8536V9.12451H0.667603V20.8536C0.667897 23.6955 1.6935 26.4209 3.51883 28.4303C5.34416 30.4397 7.81971 31.5686 10.401 31.5686Z" fill="#C0DDF0"/>
<path d="M16.417 20.8536C16.417 26.0001 12.957 30.2927 8.34479 31.3263C8.94343 31.4674 9.55276 31.5465 10.1648 31.5624C15.6926 31.423 20.1337 26.6839 20.1337 20.8536V9.12451H16.417V20.8536Z" fill="#4299D4"/>
<path d="M10.4 32.3027C7.64287 32.2994 4.99945 31.0922 3.04974 28.9458C1.10002 26.7995 0.00323523 23.8893 0 20.8537V9.12461C0 8.92995 0.0702376 8.74325 0.195262 8.6056C0.320287 8.46795 0.489857 8.39062 0.666669 8.39062H20.1334C20.3102 8.39062 20.4798 8.46795 20.6048 8.6056C20.7298 8.74325 20.8001 8.92995 20.8001 9.12461V20.8537C20.7965 23.8892 19.6996 26.7992 17.75 28.9455C15.8003 31.0918 13.1571 32.2991 10.4 32.3027ZM1.33334 9.8586V20.8537C1.35976 23.4818 2.32658 25.9925 4.02394 27.8406C5.7213 29.6888 8.01222 30.7254 10.3995 30.7254C12.7867 30.7254 15.0776 29.6888 16.775 27.8406C18.4724 25.9925 19.4392 23.4818 19.4656 20.8537V9.8586H1.33334Z" fill="#2A3953"/>
<path d="M10.4 32.3027C7.64287 32.2995 4.99945 31.0922 3.04974 28.9459C1.10002 26.7995 0.00323523 23.8893 0 20.8538V5.27491C0.00147035 3.87641 0.50672 2.53566 1.40491 1.54677C2.3031 0.557887 3.52089 0.00161882 4.79112 0H16.0089C17.2792 0.00161882 18.497 0.557887 19.3951 1.54677C20.2933 2.53566 20.7986 3.87641 20.8001 5.27491V20.8538C20.7965 23.8892 19.6996 26.7992 17.75 28.9455C15.8003 31.0918 13.1571 32.2991 10.4 32.3027ZM4.79224 1.46797C3.87525 1.46862 2.99598 1.86987 2.34747 2.58364C1.69896 3.2974 1.33422 4.26533 1.33334 5.27491V20.8538C1.35976 23.4819 2.32658 25.9925 4.02394 27.8407C5.7213 29.6889 8.01222 30.7255 10.3995 30.7255C12.7867 30.7255 15.0776 29.6889 16.775 27.8407C18.4724 25.9925 19.4392 23.4819 19.4656 20.8538V5.27491C19.4647 4.26555 19.1001 3.2978 18.4519 2.58407C17.8036 1.87034 16.9246 1.46894 16.0078 1.46797H4.79224Z" fill="#2A3953"/>
<path d="M13.6745 7.01465H7.2489C6.1296 7.01465 5.22223 8.01364 5.22223 9.24596V19.5487C5.22223 20.781 6.1296 21.78 7.2489 21.78H13.6745C14.7938 21.78 15.7011 20.781 15.7011 19.5487V9.24596C15.7011 8.01364 14.7938 7.01465 13.6745 7.01465Z" fill="white"/>
<path d="M13.6754 22.5124H7.2498C6.53566 22.5117 5.85094 22.1991 5.34597 21.6431C4.841 21.0872 4.55705 20.3333 4.55646 19.5471V9.24557C4.55705 8.45933 4.841 7.70547 5.34597 7.14951C5.85094 6.59354 6.53566 6.28092 7.2498 6.28027H13.6754C14.3894 6.28124 15.074 6.59397 15.5789 7.14986C16.0838 7.70575 16.3678 8.45943 16.3687 9.24557V19.5471C16.3678 20.3332 16.0838 21.0869 15.5789 21.6428C15.074 22.1987 14.3894 22.5114 13.6754 22.5124ZM7.2498 7.74824C6.88919 7.74857 6.54344 7.90643 6.28846 8.18716C6.03347 8.46789 5.89009 8.84856 5.88979 9.24557V19.5471C5.89009 19.9441 6.03347 20.3247 6.28846 20.6055C6.54344 20.8862 6.88919 21.0441 7.2498 21.0444H13.6754C14.036 21.0441 14.3817 20.8862 14.6367 20.6055C14.8917 20.3247 15.0351 19.9441 15.0354 19.5471V9.24557C15.0351 8.84856 14.8917 8.46789 14.6367 8.18716C14.3817 7.90643 14.036 7.74857 13.6754 7.74824H7.2498Z" fill="#2A3953"/>
<path d="M12.6578 11.5105H8.26671C8.08989 11.5105 7.92032 11.4331 7.7953 11.2955C7.67027 11.1578 7.60004 10.9711 7.60004 10.7765C7.60004 10.5818 7.67027 10.3951 7.7953 10.2575C7.92032 10.1198 8.08989 10.0425 8.26671 10.0425H12.6578C12.8346 10.0425 13.0042 10.1198 13.1292 10.2575C13.2543 10.3951 13.3245 10.5818 13.3245 10.7765C13.3245 10.9711 13.2543 11.1578 13.1292 11.2955C13.0042 11.4331 12.8346 11.5105 12.6578 11.5105Z" fill="#2A3953"/>
<path d="M12.6578 15.1301H8.26671C8.08989 15.1301 7.92032 15.0528 7.7953 14.9151C7.67027 14.7775 7.60004 14.5908 7.60004 14.3961C7.60004 14.2014 7.67027 14.0147 7.7953 13.8771C7.92032 13.7394 8.08989 13.6621 8.26671 13.6621H12.6578C12.8346 13.6621 13.0042 13.7394 13.1292 13.8771C13.2543 14.0147 13.3245 14.2014 13.3245 14.3961C13.3245 14.5908 13.2543 14.7775 13.1292 14.9151C13.0042 15.0528 12.8346 15.1301 12.6578 15.1301Z" fill="#2A3953"/>
<path d="M12.6578 18.7507H8.26671C8.08989 18.7507 7.92032 18.6734 7.7953 18.5357C7.67027 18.3981 7.60004 18.2114 7.60004 18.0167C7.60004 17.822 7.67027 17.6353 7.7953 17.4977C7.92032 17.36 8.08989 17.2827 8.26671 17.2827H12.6578C12.8346 17.2827 13.0042 17.36 13.1292 17.4977C13.2543 17.6353 13.3245 17.822 13.3245 18.0167C13.3245 18.2114 13.2543 18.3981 13.1292 18.5357C13.0042 18.6734 12.8346 18.7507 12.6578 18.7507Z" fill="#2A3953"/>
</svg>
