<svg width="48" height="30" viewBox="0 0 48 30" fill="none" xmlns="http://www.w3.org/2000/svg">
<path d="M9.47326 3.15484C6.23816 6.38995 6.23816 11.6343 9.47326 14.8694L23.7705 29.1666L38.0678 14.8694C41.3029 11.6343 41.3029 6.38995 38.0678 3.15484C34.8327 -0.0802607 29.5884 -0.0802607 26.3533 3.15484L23.7705 5.73759L21.1878 3.15484C17.9527 -0.0802607 12.7084 -0.0802607 9.47326 3.15484Z" fill="#C48CAF"/>
<path d="M38.0667 3.15482C35.8683 0.956449 32.7411 0.253167 29.9474 1.04375C31.2642 1.41601 32.5059 2.11808 33.5426 3.15482C36.7777 6.38992 36.7777 11.6342 33.5426 14.8693L21.508 26.904L23.7706 29.1666L38.0679 14.8693C41.303 11.6342 41.303 6.38992 38.0679 3.15482H38.0667Z" fill="#A85488"/>
<path d="M23.7706 29.8944C23.5838 29.8944 23.3983 29.8229 23.2564 29.681L8.95916 15.3837C5.44517 11.8697 5.44517 6.15373 8.95916 2.63974C10.6616 0.937306 12.9242 0 15.3312 0C17.7381 0 20.0007 0.937306 21.7032 2.63974L23.7706 4.70715L25.838 2.63974C29.352 -0.874256 35.068 -0.874256 38.582 2.63974C42.096 6.15373 42.096 11.8697 38.582 15.3837L24.2847 29.681C24.1428 29.8229 23.9561 29.8944 23.7706 29.8944ZM15.3312 1.45992C13.3959 1.45992 11.4607 2.19594 9.98863 3.6692C7.04211 6.61572 7.04211 11.409 9.98863 14.3555L23.7718 28.1386L37.5549 14.3555C40.5014 11.409 40.5014 6.61572 37.5549 3.6692C36.1277 2.24202 34.2301 1.45628 32.2124 1.45628C30.1947 1.45628 28.297 2.24202 26.8699 3.6692L24.2871 6.25195C24.0034 6.53569 23.5426 6.53569 23.2577 6.25195L20.6749 3.6692C19.2016 2.19594 17.2664 1.45992 15.3324 1.45992H15.3312Z" fill="#2A3953"/>
<path d="M24.4911 20.6569C24.4911 20.6569 24.4802 20.6569 24.4741 20.6569C24.1807 20.6508 23.92 20.4677 23.8132 20.1949L20.4642 11.6463L18.25 16.014C18.1264 16.2589 17.8753 16.4129 17.6013 16.4129H2.95361C2.55225 16.4129 2.22607 16.0867 2.22607 15.6854C2.22607 15.284 2.55225 14.9578 2.95361 14.9578H17.1551L19.9015 9.54012C20.0313 9.28427 20.2993 9.12906 20.5854 9.1424C20.8716 9.15574 21.1238 9.33641 21.2281 9.60317L24.5347 18.0438L27.4727 11.439C27.5892 11.1783 27.8474 11.0085 28.1324 11.0073C28.4185 11.0073 28.678 11.171 28.7981 11.4305L30.4217 14.9566H45.4804C45.8818 14.9566 46.208 15.2828 46.208 15.6841C46.208 16.0855 45.8818 16.4117 45.4804 16.4117H29.9561C29.6723 16.4117 29.4141 16.2468 29.2952 15.9885L28.1481 13.4991L25.1556 20.2252C25.0391 20.4883 24.7772 20.6569 24.4911 20.6569Z" fill="#2A3953"/>
<path d="M44.5891 18.0307C45.818 18.0307 46.8142 17.0345 46.8142 15.8056C46.8142 14.5768 45.818 13.5806 44.5891 13.5806C43.3603 13.5806 42.3641 14.5768 42.3641 15.8056C42.3641 17.0345 43.3603 18.0307 44.5891 18.0307Z" fill="#80BAE2"/>
<path d="M44.5884 18.7582C42.96 18.7582 41.6359 17.4341 41.6359 15.8056C41.6359 14.1771 42.96 12.853 44.5884 12.853C46.2169 12.853 47.541 14.1771 47.541 15.8056C47.541 17.4341 46.2169 18.7582 44.5884 18.7582ZM44.5884 14.3081C43.7627 14.3081 43.0909 14.9799 43.0909 15.8056C43.0909 16.6314 43.7627 17.3031 44.5884 17.3031C45.4142 17.3031 46.086 16.6314 46.086 15.8056C46.086 14.9799 45.4142 14.3081 44.5884 14.3081Z" fill="#2A3953"/>
<path d="M2.95325 18.0307C4.18211 18.0307 5.1783 17.0345 5.1783 15.8056C5.1783 14.5768 4.18211 13.5806 2.95325 13.5806C1.7244 13.5806 0.72821 14.5768 0.72821 15.8056C0.72821 17.0345 1.7244 18.0307 2.95325 18.0307Z" fill="#80BAE2"/>
<path d="M2.95258 18.7582C1.32411 18.7582 0 17.4341 0 15.8056C0 14.1771 1.32411 12.853 2.95258 12.853C4.58105 12.853 5.90516 14.1771 5.90516 15.8056C5.90516 17.4341 4.58105 18.7582 2.95258 18.7582ZM2.95258 14.3081C2.12683 14.3081 1.45507 14.9799 1.45507 15.8056C1.45507 16.6314 2.12683 17.3031 2.95258 17.3031C3.77833 17.3031 4.45009 16.6314 4.45009 15.8056C4.45009 14.9799 3.77833 14.3081 2.95258 14.3081Z" fill="#2A3953"/>
</svg>
